/* XPM */
static char *ca77c82dbd684b77c277861444f09b413w02iZDm2DhrG3uw[] = {
/* columns rows colors chars-per-pixel */
"64 64 4 1 ",
"  c gray19",
". c #FE2828",
"X c #A9A9A9",
"o c #B9B9B9",
/* pixels */
"oooooooooooooooooooooooooooooooooooooooooooooooooooooooooooooooo",
"oooooooooooooooooooooooooooooooooooooooooooooooooooooooooooooooo",
"oooooooooooooooooooooooooooooooooooooooooooooooooooooooooooooooo",
"oooooooooooooooooooooooooooooooooooooooooooooooooooooooooooooooo",
"ooooooooooooooooooooooooooo           oooooooooooooooooooooooooo",
"oooooooooooooooooooooo                     ooooooooooooooooooooo",
"ooooooooooooooooooo                          ooooooooooooooooooo",
"ooooooooooooooooo                               oooooooooooooooo",
"ooooooooooooooo                                   oooooooooooooo",
"oooooooooooooo                                     ooooooooooooo",
"oooooooooooo       ......................            ooooooooooo",
"ooooooooooo        ..                    ...          oooooooooo",
"oooooooooo         .........................           ooooooooo",
"ooooooooo          .. .. . . ..  .  .  .  ..            oooooooo",
"oooooooo           .. .. ... .....  .  .  ..             ooooooo",
"ooooooo            .. .. . . ...... .. .....              oooooo",
"oooooo        ..                               ..          ooooo",
"ooooo       ....                               ....         oooo",
"ooooo      ....             XXXXXXXXX           ....        oooo",
"oooo       ...              XXXXXXXXX            ...         ooo",
"ooo       ...            XXX   XXX   XX           ...         oo",
"ooo      ...          XXXX     XXX     XXX         ...        oo",
"oo      ...          X  XXX    XXX      XXX         ...        o",
"oo      ...         X    XX    XXX     XX  XX       ...        o",
"oo     ...          X    XXX   XXX    XX   XX        ...       o",
"o      ..         XX      XX   XXX   XX      X        ..        ",
"o     ...         XX       XX  XXX   XX      X        ...       ",
"o     ..         XXXX      XX  XXX  XX      XXX        ..       ",
"     ...         X XXXX     XX XXX XX     XXXXX        ...      ",
"     ...         X   XXXX   XX XXXXX   XXXXX  X        ...      ",
"     ...        X      XXXX  XX   XXXXXX       XX      ...      ",
"     ..         X        XXXXX     XXX         XX       ..      ",
"     ..         X           X       X          XX       ..      ",
"     ..         X           X       X          XX       ..      ",
"     ..         X         XXX       XXX        XX       ..      ",
"     ..         X       XXX  X     X   XXX     XX       ..      ",
"     ...        X     XXX    XX   XXX    XXXX  XX      ...      ",
"     ...        X   XXX      XXXXX XXX     XXXXXX      ...      ",
"      ..         XXXX       XX XXX  XX       XX        ..       ",
"o     ..         XX        XX  XXX  XXX       X        ..       ",
"o     ...        X        XX   XXX   XX       X       ...       ",
"o     ...         XX     XX    XXX   XXX     X        ...       ",
"oo    ...         XX    XX     XXX    XX     X        ...      o",
"oo     ...          X  XX      XXX    XXX  XX        ...       o",
"oo     ...          X XX       XXX     XX  XX        ...       o",
"ooo     ...          XX        XXX     XXXX         ...       oo",
"ooo     ...           XXX      XXX     XXX          ...       oo",
"oooo     .     ...       XXX   XXX   XX        ..    .       ooo",
"ooooo        ...  ..        XXXXXXXXX          ..           oooo",
"ooooo       ..     .        XXXXXXXXX          ..           oooo",
"oooooo      ..    ..  .                       ...          ooooo",
"ooooooo      .. ...   .                     .....         oooooo",
"oooooooo      ...     . . .....    .....    ..  .        ooooooo",
"ooooooooo             ...     ..   ... .    .   .       oooooooo",
"oooooooooo        ......      ..      ..    .  ..      ooooooooo",
"ooooooooooo       .   ..  ......     ...     ..       oooooooooo",
"oooooooooooo      .. ..   ... .     ...              ooooooooooo",
"oooooooooooooo     ...        ..   ... ..          ooooooooooooo",
"ooooooooooooooo     ..    ......   .......        oooooooooooooo",
"ooooooooooooooooo         ......                oooooooooooooooo",
"oooooooooooooooooooo                         ooooooooooooooooooo",
"oooooooooooooooooooooo                     ooooooooooooooooooooo",
"ooooooooooooooooooooooooooo           oooooooooooooooooooooooooo",
"oooooooooooooooooooooooooooooooooooooooooooooooooooooooooooooooo"
};
