/* XPM */
static char *_ecf43babf4e4e14f93d59cf83ac4be0KqOYILH7UxiVQYEX[] = {
/* columns rows colors chars-per-pixel */
"80 80 224 2 ",
"   c black",
".  c #090600",
"X  c #1B0E0C",
"o  c #1C160D",
"O  c #000E12",
"+  c #170D15",
"@  c #09161B",
"#  c #141313",
"$  c #1B1615",
"%  c #151817",
"&  c #1C1B15",
"*  c #19161B",
"=  c #141D1B",
"-  c #1C1B19",
";  c #250B03",
":  c #330D00",
">  c #3C0800",
",  c #281709",
"<  c #2E1D0D",
"1  c #341201",
"2  c #3B1402",
"3  c #3B1905",
"4  c #361708",
"5  c #341B0D",
"6  c #3A1B0C",
"7  c #231615",
"8  c #2C1712",
"9  c #231816",
"0  c #24161C",
"q  c #221B1B",
"w  c #2C1A1A",
"e  c #341B12",
"r  c #3B1D14",
"t  c #361A18",
"y  c #172219",
"u  c #2E210D",
"i  c #382206",
"p  c #26221B",
"a  c #2B231B",
"s  c #392117",
"d  c #0C1E24",
"f  c #041D28",
"g  c #151C23",
"h  c #1D1A22",
"j  c #16192B",
"k  c #0A1E33",
"l  c #241B22",
"z  c #311F23",
"x  c #0C2227",
"c  c #06232B",
"v  c #03242A",
"b  c #092229",
"n  c #162223",
"m  c #1B2324",
"M  c #15232B",
"N  c #1B232B",
"B  c #172A2C",
"V  c #072533",
"C  c #012C38",
"Z  c #162A34",
"A  c #183339",
"S  c #242323",
"D  c #282725",
"F  c #252925",
"G  c #282A29",
"H  c #342F2B",
"J  c #32312F",
"K  c #363836",
"L  c #3C3B3B",
"P  c #421500",
"I  c #421903",
"U  c #461B0A",
"Y  c #411C18",
"T  c #522502",
"R  c #452519",
"E  c #5D3212",
"W  c #643F1B",
"Q  c #463C2A",
"!  c #423637",
"~  c #413D3C",
"^  c #6D3C26",
"/  c #67461E",
"(  c #48433E",
")  c #554432",
"_  c #634123",
"`  c #7B512B",
"'  c #6A4632",
"]  c #163C47",
"[  c #253E4B",
"{  c #343D46",
"}  c #3A3A42",
"|  c #213F51",
" . c #413C48",
".. c #1D4754",
"X. c #2A4148",
"o. c #3C464B",
"O. c #284555",
"+. c #394C56",
"@. c #26525D",
"#. c #304967",
"$. c #2E5466",
"%. c #355965",
"&. c #2A6575",
"*. c #474746",
"=. c #4D4C4B",
"-. c #514C49",
";. c #53514E",
":. c #5E544B",
">. c #4A4D53",
",. c #4B5151",
"<. c #545352",
"1. c #585858",
"2. c #675951",
"3. c #65615F",
"4. c #4D5F61",
"5. c #685E61",
"6. c #50666E",
"7. c gray45",
"8. c #93623A",
"9. c #8C6C44",
"0. c #9D6848",
"q. c #A27653",
"w. c #9D7D66",
"e. c #AC8876",
"r. c #C48557",
"t. c #C6966D",
"y. c #D3976E",
"u. c #D99B6A",
"i. c #EB9F72",
"p. c #DDA473",
"a. c #DBA57C",
"s. c #D9A878",
"d. c #E8A264",
"f. c #E4A36D",
"g. c #EAA36B",
"h. c #E2A473",
"j. c #E7A97A",
"k. c #EEB27C",
"l. c #347798",
"z. c #476E83",
"x. c #45738B",
"c. c #497488",
"v. c #517588",
"b. c #667A95",
"n. c #FF0084",
"m. c #068BB3",
"M. c #578599",
"N. c #628C9C",
"B. c #7D959A",
"V. c #5F8DA8",
"C. c #7697AB",
"Z. c #6A9AB3",
"A. c #7EA2AB",
"S. c #77A6BB",
"D. c #70A9C4",
"F. c #7EB4CA",
"G. c #7AB7D4",
"H. c #7BC6DE",
"J. c #57C7E6",
"K. c #79C6E3",
"L. c #978D87",
"P. c #9B9C9C",
"I. c #A49B96",
"U. c #A4A19E",
"Y. c #BDB190",
"T. c #94B0BB",
"R. c #BCAEA2",
"E. c #B0B0AF",
"W. c #A8B8B5",
"Q. c #BCBBB9",
"!. c #CFAE8A",
"~. c #DAA884",
"^. c #C3B197",
"/. c #EAAF82",
"(. c #EAB485",
"). c #F8BD89",
"_. c #E8BB94",
"`. c #F1BF92",
"'. c #CBB2A5",
"]. c #B0C6BD",
"[. c #ECCB8A",
"{. c #F9C68C",
"}. c #FEC58D",
"|. c #EBD289",
" X c #EDC499",
".X c #FDC594",
"XX c #F4CA97",
"oX c #FECA93",
"OX c #F6C49B",
"+X c #FCC59B",
"@X c #FDCA9D",
"#X c #C8CCB6",
"$X c #D6CCB6",
"%X c #ECC7A5",
"&X c #FDC4A0",
"*X c #F5C8A4",
"=X c #FDCCA3",
"-X c #E2CEB2",
";X c #EFD4B0",
":X c #FDD2B0",
">X c #83AFC5",
",X c #85B7CA",
"<X c #9BB9C7",
"1X c #88BDD3",
"2X c #98BDD3",
"3X c #A3BDC4",
"4X c #8FC0CE",
"5X c #99C4CB",
"6X c #89C4D7",
"7X c #92C4D8",
"8X c #A8C4C6",
"9X c #BCCBC7",
"0X c #86CFE8",
"qX c #CBCEC4",
"wX c #C9CCC6",
"eX c #D5D5CC",
"rX c #EFD5C5",
"tX c #DFE1DE",
"yX c #FFE9D9",
"uX c gray91",
"iX c #FCF5F4",
"pX c #FCFBF6",
"aX c #F6F9F8",
"sX c #FEFEFE",
/* pixels */
"O O O O O O O O O O O O O O O O O O O O O O O O O O O O O O O O O O O O O O O O O O O O O O O O O O O O O O O O O O O O O O O O O O O O O O O O O O O O O O O O ",
"O C C C C C C C C C C C C C C C C C C C C C C C C C C C C C C C C C C C C C C C C C C C C C C C C C C C C C C C C C C C C C C C C C C C C C C C C C C C C C C O ",
"O C m.m.m.m.m.m.m.m.m.m.m.m.m.m.m.m.m.m.m.m.m.m.m.m.m.m.m.m.m.m.m.m.m.m.m.m.m.m.m.m.m.m.m.m.m.m.m.m.m.m.m.m.m.m.m.m.m.m.m.m.m.m.m.m.m.m.m.m.m.m.m.m.m.m.m.m.C O ",
"O C m.J.J.J.J.J.J.J.J.J.J.J.J.J.J.J.J.J.J.J.J.J.J.J.J.J.J.J.J.J.J.J.J.J.J.J.J.J.J.J.J.J.J.J.J.J.J.J.J.J.J.J.J.J.J.J.J.J.J.J.J.J.J.J.J.J.J.J.J.J.J.J.J.J.J.m.C O ",
"O C m.J.J.J.J.J.J.J.J.J.J.J.J.J.J.    J.    J.J.J.J.J.J.J.J.J.J.J.J.J.J.J.J.J.J.J.J.J.J.J.J.J.J.J.J.J.J.J.J.J.    J.    J.J.J.J.J.J.J.J.J.J.J.J.J.J.J.J.J.m.C O ",
"O C m.J.J.J.J.J.J.J.J.J.J.J.J.J.  n.n.  n.sX  J.J.J.J.J.J.J.J.        J.J.        J.J.J.J.J.J.J.J.J.J.J.J.J.  n.n.  n.sX  J.J.J.J.J.J.J.J.J.J.J.J.J.J.J.J.m.C O ",
"O C m.J.J.J.J.J.J.J.J.J.J.J.J.J.  n.n.n.n.n.  J.J.J.J.J.J.J.  n.n.n.n.    n.n.n.n.  J.J.J.J.J.J.J.J.J.J.J.J.  n.n.n.n.n.  J.J.J.J.J.J.J.J.J.J.J.J.J.J.J.J.m.C O ",
"O C m.J.J.J.J.J.J.J.J.J.J.J.J.J.  n.n.n.n.n.  J.J.J.J.J.J.J.  n.n.n.n.    n.sXsXn.  J.J.J.J.J.J.J.J.J.J.J.J.  n.n.n.n.n.  J.J.J.J.J.J.J.J.J.J.J.J.J.J.J.J.m.C O ",
"O C m.J.J.J.J.J.J.J.J.J.J.J.J.J.J.  n.n.n.  J.J.J.J.J.J.J.J.  n.n.n.n.n.n.n.sXn.n.  J.J.J.J.J.J.J.J.J.J.J.J.J.  n.n.n.  J.J.J.J.        J.J.        J.J.J.m.C O ",
"O C m.J.J.J.J.J.J.J.J.J.J.J.J.J.J.J.  n.  J.J.J.J.J.J.J.J.J.  n.n.n.n.n.n.n.n.n.n.  J.J.J.J.J.J.J.J.J.J.J.J.J.J.  n.  J.J.J.J.  n.n.n.n.    n.n.n.n.  J.J.m.C O ",
"O C m.J.J.        J.J.        J.J.J.J.  J.J.J.J.J.J.J.J.J.J.  n.n.n.n.n.n.n.n.n.n.  J.J.J.J.J.J.J.J.J.J.J.J.J.J.J.  J.J.J.J.J.  n.n.n.n.    n.sXsXn.  J.J.m.C O ",
"O C m.J.  n.n.n.n.    n.n.n.n.  J.J.J.J.J.J.J.J.J.J.J.J.J.J.J.    n.n.n.n.n.n.    J.J.J.J.J.J.J.J.J.J.J.J.J.J.J.J.J.J.J.J.J.J.  n.n.n.n.n.n.n.sXn.n.  J.J.m.C O ",
"O C m.J.  n.n.n.n.    n.sXsXn.  J.J.J.J.O.9 4 1 u u < u 9 J.J.J.  n.n.n.n.n.n.  J.J.J.J.J.J.J.J.7X+.s 6 3 6 4 4 3 3 3 4 J.J.J.  n.n.n.n.n.n.n.n.n.n.  J.J.m.C O ",
"O C m.J.  n.n.n.n.n.n.n.sXn.n.  J.J.V.s 5 e e 6 e 5 4 5 u 8 e J.J.    n.n.    J.J.J.J.J.J.J.J.7Xa u 4 6 6 5 6 5 e e e e r J.J.  n.n.n.n.n.n.n.n.n.n.  J.J.m.C O ",
"O C m.J.  n.n.n.n.n.n.n.n.n.n.  J.J.v.5 6 5 5 e 5 5 e e e 5 s j J.J.  n.n.  J.J.    J.    J.J.O.8 5 r 5 5 e 5 e 5 5 5 5 5 J.J.J.    n.n.n.n.n.n.    J.J.J.m.C O ",
"O C m.J.  n.n.n.n.n.n.n.n.n.n.  J.c w 5 5 e 5 e 5 e e 5 e 5 4 $ J.J.J.    J.J.  n.n.  n.sX  J.N 4 5 e e e 8 e e e e e 5 1 A.J.J.J.  n.n.n.n.n.n.  J.J.J.J.m.C O ",
"O C m.J.J.    n.n.n.n.n.n.    J.J.p 2 5 e 5 5 5 5 e e 0.1 ; 2 e J.J.J.J.J.J.J.  n.n.n.n.n.  J.$ : 6 6 6 4 6 6 e r r R : _ 6.J.J.J.J.    n.n.    J.J.J.J.J.m.C O ",
"O C m.J.J.J.  n.n.n.n.n.n.  J.J.N 4 Y t 6 4 r , 2 ~.p.y.p.j.t.6 J.J.J.J.J.J.J.  n.n.n.n.n.  J.) /.@X)..X.X@X.XoX@XOX)..XW 4.J.J.J.J.J.  n.n.  J.J.J.J.J.J.m.C O ",
"O C m.J.J.J.J.    n.n.    J.J.J.N.h e I 1 : I ^ f.k.u.1 > h.y.3 J.J.J.J.J.J.J.J.  n.n.n.  J.J.) (.=X.X@X@X@X.X.XOX_.OX@X_ 4.J.J.J.J.J.J.    J.J.J.J.J.J.J.m.C O ",
"O C m.J.J.J.J.J.  n.n.  J.J.J.J.J.2Xq ~.s.t._.y.h.g.g.~.~.h.j.2 H.J.J.J.J.J.J.J.J.  n.  J.J.3XQ _._.2 P a.{..XoX> 1 I {._ 1.J.J.J.J.J.J.J.J.J.J.J.J.J.J.J.m.C O ",
"O C m.J.J.J.J.J.J.    J.J.J.J.J.3X^.3 f.j.T i ` p.f.f.T q.f.g.P !.1XJ.J.J.J.J.J.J.J.  J.J.J.;X/ OX@Xe._.*X).}.+X:Xw. X(.E 9.J.J.J.J.J.J.J.J.J.J.J.J.J.J.J.m.C O ",
"O C m.J.J.J.J.J.J.J.J.J.J.J.J.J.^.j.3 h.p./.h.h.f.g.g.j.h.g.s.i d.W.J.J.J.J.J.J.J.J.J.J.J.J.}..XoX.X; ^  X{.oX+X~.4 ` *X@X}.J.J.J.J.J.J.J.    J.    J.J.J.m.C O ",
"O C m.J.J.J.J.J.J.J.J.J.J.J.J.J.,X^.P j.f.u.f.h.p.h.h.p.g.g.h.3 R.2XJ.J.J.J.J.J.J.J.J.J.J.J.-XOX}..X X{..XoX{.+X=X*X&X@X&XOXJ.J.J.J.J.J.  n.n.  n.sX  J.J.m.C O ",
"O C m.J.J.J.J.J.J.J.J.J.J.J.J.J.J.<X8 8.s.s.y.T I I I U /.p.0.2 6XJ.J.J.J.J.J.J.J.J.J.J.J.J.5X$X}..X.X}.{.@X{..X.X.X.XoXOX].J.J.J.J.J.J.  n.n.n.n.n.  J.J.m.C O ",
"O C m.J.J.J.J.J.J.J.J.J.J.J.J.J.J.J.b.r 1 ' 6 s iXpXpX2.' 1 U w J.J.    J.    J.J.J.J.J.J.J.J.5X=X&X}..Xj.@X{..X)..X+X+X9XJ.J.J.J.J.J.J.  n.n.n.n.n.  J.J.m.C O ",
"O C m.J.J.J.    J.    J.J.J.J.J.J.J.J.e 6 5 H z sXpXiXw 1 P 6 g J.  n.n.  n.sX  J.J.J.J.J.J.J.6X#XOXOX}.j.r.u.u.`.[..X`.J.J.J.J.J.J.J.J.J.  n.n.n.  J.J.J.m.C O ",
"O C m.J.J.  n.n.  n.sX  J.J.J.J.J.J.J.J.# r Y r Y w w 3 a O.,XJ.J.  n.n.n.n.n.  J.J.J.J.J.J.J.J.J.J.qX-X+X{.oX[.%XrX2XJ.J.J.J.J.J.J.J.J.J.J.  n.  J.J.J.J.m.C O ",
"O C m.J.J.  n.n.n.n.n.  J.J.J.J.J.J.J.J.J.J.C.a 2 8 2 G 7XJ.J.J.J.  n.n.n.n.n.  J.J.J.J.J.J.J.J.J.J.J.8X&X[.@XXX$XJ.J.J.J.J.J.J.J.J.J.J.J.J.J.  J.J.J.J.J.m.C O ",
"O C m.J.J.  n.n.n.n.n.  J.J.J.J.J.J.J.J.J.J.K.'.s.a.i.W.J.J.J.J.J.J.  n.n.n.  J.J.J.J.J.J.J.J.J.J.J.J.7X&X|.&XoX$XJ.J.J.J.J.J.J.J.J.J.J.J.J.J.J.J.J.J.J.J.m.C O ",
"O C m.J.J.J.  n.n.n.  J.J.J.J.J.J.J.J.J.J.J.8XpXy./.~.sXJ.J.J.J.J.J.J.  n.  J.J.J.J.J.J.J.J.J.J.J.J.Z.pXyX:X&XrXaXT.G.J.J.J.J.J.J.    J.    J.J.J.J.J.J.J.m.C O ",
"O C m.J.J.J.J.  n.  J.J.J.J.J.J.J.J.M.# ;.1.=.E.L.I.:.aX5.m Z C J.J.J.J.  J.J.J.J.J.J.J.J.J.J.c c K <.sX* 2.L.. qX( 1.{ d N.J.J.  n.n.  n.sX  J.J.J.J.J.J.m.C O ",
"O C m.J.J.J.J.J.  J.J.J.J.J.J.J.f 7 7 G >.1.;.U.aXpXsX*.,.*.- - l $.J.J.J.J.J.J.J.J.J.J.J.f q - S ,.1.5.U.pXsXtXP.1.<.1.* $ c J.  n.n.n.n.n.  J.J.J.J.J.J.m.C O ",
"O C m.J.J.J.J.J.J.J.J.J.J.J.J.] @ 8 9 o -.;.<.=.sXsXsX,.<.J - & ; O S.J.J.J.J.J.J.J.J.J.Z.g 9 q - *.;.=.sXsXsXaX<.( =.*.j % m J.  n.n.n.n.n.  J.J.J.J.J.J.m.C O ",
"O C m.J.J.J.J.J.J.J.J.J.J.J.J.V - & - - $ ( ;.=.sXsXsX<.sXQ.S y g p A J.J.J.J.J.J.J.J.J.b q - - - - <.<.sXsXsXsX1.;.aXsX0 = 7 J.J.  n.n.n.  J.J.J.J.J.J.J.m.C O ",
"O C m.J.J.J.J.J.J.J.J.J.J.J.J.b - - * & % H ;.;.sXsXsX=.aXpXeX% h $ n G.J.J.J.J.J.J.J.F.g $ - - - - <.<.7.sXsXuX1.qXsXsX7 = 7 J.J.J.  n.  J.J.J.J.J.J.J.J.m.C O ",
"O C m.J.J.J.J.J.J.J.J.J.J.J.J.F 7 - h - y L =.=.sXaXsX<.G q $ & - 9 9 @ J.J.J.J.J.J.J.% 9 - - * - - <.,.=.sXsX*.;.;.( * 9 = X S.J.J.J.  J.J.J.J.J.J.J.J.J.m.C O ",
"O C m.J.J.J.J.J.J.J.J.J.J.J.J.- - - - - - & L =.sXsXP.<.= & y [ 0 g - - %.J.J.J.J.J.@.X 0 j l +.# - F 3.3.E.sX<.=.J - - * - $ M J.J.J.J.J.J.J.J.J.J.J.J.J.m.C O ",
"O C m.J.J.J.J.J.J.J.J.J.J.J.J.q - - - - - - $ =.Q.iX<.J x & % <X9 g - 9 A J.J.J.J.F.v p 0 h l 5XG & % H ;.;.pX=.*.$ - - - - * g J.J.J.J.J.J.J.J.J.J.J.J.J.m.C O ",
"O C m.J.J.J.J.J.J.J.J.J.J.J.J.- - - - - - - - $ =.#X<.- g , % J.& = & < = J.J.J.J.f l - * - V J.@ y % D G *.sX=.$ # - - - - p m G.J.J.J.J.J.J.J.J.J.J.J.J.m.C O ",
"O C m.J.J.J.J.J.J.J.J.J.J.J.S.* - - - - - - * * <.<.K - g 7 % J.y * - 9 y J.J.J.J.- & = o # D.J.* % & y # L U.% - & - - g m - & F.J.J.J.J.J.J.J.J.J.J.J.J.m.C O ",
"O C m.J.J.J.J.J.J.J.J.J.J.J.M - 9 l * * - - - - - - - - y - l J.&.0 8 - = ] J.J.J.7 q - , n J.J.= 9 - - - - & - - - - - J.= - - v J.J.J.J.J.J.J.J.J.J.J.J.m.C O ",
"O C m.J.J.J.J.J.J.J.J.J.J.J.Z 9 9 - * - - - - - - - - - = 7 h J.H.g 7 9 - j z.J.$.9 - - q ] J.J.= $ & - - - - - - - - - J.x $ - d J.J.J.J.J.J.J.J.J.J.J.J.m.C O ",
"O C m.J.J.J.J.J.J.J.J.J.J.,Xd 9 q h @ - & - - - - - - - y 7 - J.J.] @ l - + j H.j - - 9 M J.J.J.g $ & - - - - - - - - - J.f 0 - = J.J.J.J.J.J.J.J.J.J.J.J.m.C O ",
"O C m.J.J.J.J.J.J.J.J.J.J.V.y q - g #.- - - - - & - - - = & h J.J.,XM h - S g L.h = - - c J.J.J.= 0 & - - - - - & - - - J...- - * S.J.J.J.J.J.J.J.J.J.J.J.m.C O ",
"O C m.J.J.J.J.J.J.J.J.J.J.b S = 7 y J.- - - - - - - - - = 7 h J.J.J.0Xm , * - - - q q B J.J.J.J.g - - - & - - - - - - - J.J.7 l - b J.J.J.J.J.J.J.J.J.J.J.m.C O ",
"O C m.J.J.J.J.J.J.J.J.J.J.j 9 h 9 x J.- - - - - & - - - y 7 h J.J.J.J.O.- * - - - * = %.J.J.J.J.= * - - - - - - - - - - J.J.0 - q d J.J.J.J.J.J.J.J.J.J.J.m.C O ",
"O C m.J.J.J.J.J.J.J.J.J.,X% q h 9 Z J.- - - - - - - - - = - l J.J.J.J.G.M - - - - q B J.J.J.J.J.= 7 - - - - - - - - - - J.J.0 - $ % ,XJ.J.J.J.J.J.J.J.J.J.m.C O ",
"O C m.J.J.J.J.J.J.J.J.J.z.q 9 g g %.J.- - - & - - - - & = 7 h J.J.J.J.J.V - - - - y f J.J.J.J.J.= - & - - - - - - - - - J.J.0 - 0 G M.J.J.J.J.J.J.J.J.J.J.m.C O ",
"O C m.J.J.J.J.J.J.J.J.J.k $ $ , 8 J.J.* - - - & m N l - = - h J.J.J.J.J.S.3 , g g f S.J.J.J.J.J.g - $ 0 - h n q - - - - J.J.q & n w v J.J.J.J.J.J.J.J.J.J.m.C O ",
"O C m.J.J.J.J.J.J.J.J.8XL.8.i o = J.J.* - & - - c.J.N h y 9 h J.J.J.J.J.H.)..X{. X6XJ.J.J.J.J.J.= $ - - 9 j J.m - - - - J.J.d < u 8.'.J.J.J.J.J.J.J.J.J.J.m.C O ",
"O C m.J.J.J.J.J.J.J.J.W.~.d.p.s.R.J.J.- - - - - x.J.b h = 9 h J.J.J.J.J.K.#X%X).OXK.J.J.J.J.J.J.g 9 - - 7 V J.y - - - - J.J.eX).oX{.*XJ.J.J.J.J.J.J.J.J.J.m.C O ",
"O C m.J.J.J.J.J.J.J.J.4X'.s.s.Y.W.J.J.- - - - - x.J.b h = 7 h J.J.J.J.J.J.K.6X8X5XJ.J.J.J.J.J.J.= - - g , c J., & - - - J.J.8X.XoX@X9XJ.J.J.J.J.J.J.J.J.J.m.C O ",
"O C m.J.J.J.J.J.J.J.J.J.J.J.J.J.J.J.J.- - - - - x.J.x - y - l J.J.J.J.J.J.J.J.J.J.J.J.J.J.J.J.J.= - - - , v J.% - - - - J.J.J.J.J.J.J.J.J.J.J.J.J.J.J.J.J.m.C O ",
"O C m.J.J.J.J.J.J.J.J.J.J.J.J.J.J.J.J.- & - - - x.J.b y = 7 h J.J.J.J.J.J.J.J.J.J.J.J.J.J.J.J.J.g - - - o b J.y - - - - J.J.J.J.J.J.J.J.J.J.J.J.J.J.J.J.J.m.C O ",
"O C m.J.J.J.J.J.J.J.J.J.J.J.J.J.J.J.J.- - - - - x.J.b - y 7 - J.J.J.J.J.J.J.J.J.J.J.J.J.J.J.J.J.* - - - & b J.& - & 9 & J.J.J.J.J.J.J.J.J.J.J.J.J.J.J.J.J.m.C O ",
"O C m.J.J.J.J.J.J.J.J.J.J.J.J.J.J.J.J.- - - - - x.J.b = = & h J.J.J.J.J.J.J.J.J.J.J.J.J.J.J.J.J.@ 0 - - 9 b J.y - - y 9 J.J.J.J.J.J.J.J.J.J.J.J.J.J.J.J.J.m.C O ",
"O C m.J.J.J.J.J.J.J.J.J.J.J.J.J.J.J.J.- - - & - x.J.x = y 7 h J.J.J.J.J.J.J.J.J.J.J.J.J.J.J.J.J.= - & & o b J.y - - - - J.J.J.J.J.J.J.J.J.J.J.J.J.J.J.J.J.m.C O ",
"O C m.J.J.J.J.J.J.J.J.J.J.J.J.J.J.J.J.- - & - - x.J.x = = 0 h J.J.J.J.J.J.J.J.J.J.J.J.J.J.J.J.J.g 9 - & 9 b J.% - - - - J.J.J.J.J.J.J.J.J.J.J.J.J.J.J.J.J.m.C O ",
"O C m.J.J.J.J.J.J.J.J.J.J.J.J.J.J.J.J.- - - - - x.J.b & = 9 h J.J.J.J.J.J.J.J.J.J.J.J.J.J.J.J.J.= - y & o b J.y - - - - J.J.J.J.J.J.J.J.J.J.J.J.J.J.J.J.J.m.C O ",
"O C m.J.J.J.J.J.J.J.J.J.J.J.J.J.J.J.J.- - - - - x.J.b = y 9 h J.J.J.J.J.J.J.J.J.J.J.J.J.J.J.J.J.g 7 9 y & b J.& - - - & J.J.J.J.J.J.J.J.J.J.J.J.J.J.J.J.J.m.C O ",
"O C m.J.J.J.J.J.J.J.J.J.J.J.J.J.J.J.J.- - - - - x.J.x - y 9 h J.J.J.J.J.J.J.J.J.J.J.J.J.J.J.J.J.= - $ - & x J.y - - & - J.J.J.J.J.J.J.J.J.J.J.J.J.J.J.J.J.m.C O ",
"O C m.J.J.J.J.J.J.J.J.J.J.J.J.J.J.J.J.- - - - - x.J.x = = 9 h J.J.J.J.J.J.J.J.J.J.J.J.J.J.J.J.J.= - - - o b J.y - - - - J.J.J.J.J.J.J.J.J.J.J.J.J.J.J.J.J.m.C O ",
"O C m.J.J.J.J.J.J.J.J.J.J.J.J.J.J.J.J.- - & - - x.J.x y y $ j J.J.J.J.J.J.J.J.J.J.J.J.J.J.J.J.J.g - - - 9 b J.- - - - - J.J.J.J.J.J.J.J.J.J.J.J.J.J.J.J.J.m.C O ",
"O C m.J.J.J.J.J.J.J.J.J.J.J.J.J.J.J.J.- - - - - x.J.b - = 9 l J.J.J.J.J.J.J.J.J.J.J.J.J.J.J.J.J.* 7 - - o v J.y - - - - J.J.J.J.J.J.J.J.J.J.J.J.J.J.J.J.J.m.C O ",
"O C m.J.J.J.J.J.J.J.J.J.J.J.J.J.J.J.J.y - - - - x.J.x - y 9 h J.J.J.J.J.J.J.J.J.J.J.J.J.J.J.J.J.y - - - , b J.% - - - - J.J.J.J.J.J.J.J.J.J.J.J.J.J.J.J.J.m.C O ",
"O C m.J.J.J.J.J.J.J.J.J.J.J.J.J.J.J.J.- - - - - x.J.x = = - h J.J.J.J.J.J.J.J.J.J.J.J.J.J.J.J.J.g - & - & b J.y - - - - J.J.J.J.J.J.J.J.J.J.J.J.J.J.J.J.J.m.C O ",
"O C m.J.J.J.J.J.J.J.J.J.J.J.J.J.J.J.J.- - - - - x.J.x y y 9 h J.J.J.J.J.J.J.J.J.J.J.J.J.J.J.J.J.= - - - o b J.% - - - - J.J.J.J.J.J.J.J.J.J.J.J.J.J.J.J.J.m.C O ",
"O C m.J.J.J.J.J.J.J.J.J.J.J.J.J.J.J.J.& - - & - x.J.x - - & = J.J.J.J.J.J.J.J.J.J.J.J.J.J.J.J.J.% - = - 9 b J.y - - - - J.J.J.J.J.J.J.J.J.J.J.J.J.J.J.J.J.m.C O ",
"O C m.J.J.J.J.J.J.J.J.J.J.J.J.J.J.J.J.- - - - - x.J.b - 7 - g J.J.J.J.J.J.J.J.J.J.J.J.J.J.J.J.J.y - 9 y o x J.y - - - - J.J.J.J.J.J.J.J.J.J.J.J.J.J.J.J.J.m.C O ",
"O C m.J.J.J.J.J.J.J.J.J.J.J.J.J.J.J.J.& - - - - x.J.x = - y f J.J.J.J.J.J.J.J.J.J.J.J.J.J.J.J.J.B - 9 y & b J.y - - 0 - J.J.J.J.J.J.J.J.J.J.J.J.J.J.J.J.J.m.C O ",
"O C m.J.J.J.J.J.J.J.J.J.J.J.J.J.J.J.D.D G D D D x.J.A F G D y C.J.J.J.J.J.J.J.J.J.J.J.J.J.J.J.B.p G F F a A J.F D D D D 6.>XJ.J.J.J.J.J.J.J.J.J.J.J.J.J.J.m.C O ",
"O C m.J.J.J.J.J.J.J.J.J.J.J.J.J.J.@.o.L L L L L M.J.X.L ! ! !  .l.J.J.J.J.J.J.J.J.J.J.J.J.J.O.o.! L L K Q X.J.K L L L L ~ +.J.J.J.J.J.J.J.J.J.J.J.J.J.J.J.m.C O ",
"O C m.J.J.J.J.J.J.J.J.J.J.J.J.J.O.{ { } } } } } M.J.#.X.} } } } } O.J.J.J.J.J.J.J.J.J.J.J.[ L } L } } { } O.J.o.} } } } { { | J.J.J.J.J.J.J.J.J.J.J.J.J.J.m.C O ",
"O C m.J.J.J.J.J.J.J.J.J.J.J.J.J.J.J.J.J.J.J.J.J.J.J.J.J.J.J.J.J.J.J.J.J.J.J.J.J.J.J.J.J.J.J.J.J.J.J.J.J.J.J.J.J.J.J.J.J.J.J.J.J.J.J.J.J.J.J.J.J.J.J.J.J.J.m.C O ",
"O C m.J.J.J.J.J.J.J.J.J.J.J.J.J.J.J.J.J.J.J.J.J.J.J.J.J.J.J.J.J.J.J.J.J.J.J.J.J.J.J.J.J.J.J.J.J.J.J.J.J.J.J.J.J.J.J.J.J.J.J.J.J.J.J.J.J.J.J.J.J.J.J.J.J.J.m.C O ",
"O C m.J.J.J.J.J.J.J.J.J.J.J.J.J.J.J.J.J.J.J.J.J.J.J.J.J.J.J.J.J.J.J.J.J.J.J.J.J.J.J.J.J.J.J.J.J.J.J.J.J.J.J.J.J.J.J.J.J.J.J.J.J.J.J.J.J.J.J.J.J.J.J.J.J.J.m.C O ",
"O C m.J.J.J.J.J.J.J.J.J.J.J.J.J.J.J.J.J.J.J.J.J.J.J.J.J.J.J.J.J.J.J.J.J.J.J.J.J.J.J.J.J.J.J.J.J.J.J.J.J.J.J.J.J.J.J.J.J.J.J.J.J.J.J.J.J.J.J.J.J.J.J.J.J.J.m.C O ",
"O C m.m.m.m.m.m.m.m.m.m.m.m.m.m.m.m.m.m.m.m.m.m.m.m.m.m.m.m.m.m.m.m.m.m.m.m.m.m.m.m.m.m.m.m.m.m.m.m.m.m.m.m.m.m.m.m.m.m.m.m.m.m.m.m.m.m.m.m.m.m.m.m.m.m.m.m.C O ",
"O C C C C C C C C C C C C C C C C C C C C C C C C C C C C C C C C C C C C C C C C C C C C C C C C C C C C C C C C C C C C C C C C C C C C C C C C C C C C C C O ",
"O O O O O O O O O O O O O O O O O O O O O O O O O O O O O O O O O O O O O O O O O O O O O O O O O O O O O O O O O O O O O O O O O O O O O O O O O O O O O O O O "
};
