/* XPM */
static char *_c3f6e88bb664688cc918a46fee94752dgoVJ3yS7tT6AIjU[] = {
/* columns rows colors chars-per-pixel */
"64 64 7 1 ",
"  c black",
". c gray13",
"X c #323232",
"o c #B1B1B1",
"O c #B9B9B9",
"+ c #CBCBCB",
"@ c white",
/* pixels */
"OOOOOOOOOOOOOOOOOOOOOOOOOOOOOOOOOOOOOOOOOOOOOOOOOOOOOOOOOOOOOOOO",
"OOOOOOOOOOOOOOOOOOOOOOOOOOOOOOOOOOOOOOOOOOOOOOOOOOOOOOOOOOOOOOOO",
"OOOOOOOOOOOOOOOOOOOOOOOOOOOOOOOOOOOOOOOOOOOOOOOOOOOOOOOOOOOOOOOO",
"OOOOOOOOOOOOOOOOOOOOOOOOOOOOOOOOOOOOOOOOOOOOOOOOOOOOOOOOOOOOOOOO",
"OOOOOOOOOOOOOOOOOOOOOOOOOOOOOOOOOOOOOOOOOOOOOOOOOOOOOOOOOOOOOOOO",
"OOOOOOOOOOOOOOOOOOOOOOOOOOOOOOOOOOOOOOOOOOOOOOOOOOOOOOOOOOOOOOOO",
"OOOOOOOOOOOOOOOOOOOOOOOOOOOOOOOOOOOO     OOOOOOOOOOOOOOOOOOOOOOO",
"OOOOOOOOOOOOOOOOOOOOOOOOOOOOOOOOOO  +++++ OOOOOOOOOOOOOOOOOOOOOO",
"OOOOOOOOOOOOOOOOOOOOOOOOOOOOOOOO  oo@@@@@o  OOOOOOOOOOOOOOOOOOOO",
"OOOOOOOOOOOOOOOOOOOOOOOOOOOOOOOO  @@@@@@@@XX  OOOOOOOOOOOOOOOOOO",
"OOOOOOOOOOOOOOOOOOOOOOOOOOOOOOOO  @@@@@@@@XX  OOOOOOOOOOOOOOOOOO",
"OOOOOOOOOOOOOOOOOOOOOOOOOOOOOO  XXXX@@@@@@XXXX  OOOOOOOOOOOOOOOO",
"OOOOOOOOOOOOOOOOOOOOOOOOOOOOOO  XXXX@@@@@@XXXX  OOOOOOOOOOOOOOOO",
"OOOOOOOOOOOOOOO    OOOOOOOOOO XXXXXXX@@@@XXXXXXX OOOOOOOOOOOOOOO",
"OOOOOOOOOOOOOOO    OOOOOOOOOO XXXXXXX@@@@XXXXXXX OOOOOOOOOOOOOOO",
"OOOOOOOOOOOOO  XX.. OOOOO    XXXXXXXXXX@@XXXXXXXX  OOOOOOOOOOOOO",
"OOOOOOOOOOOOO  XX.. OOOOO    XXXXXXXXXX@@XXXXXXXX  OOOOOOOOOOOOO",
"OOOOOOOOOOOO XXXXXX.     ooXXXXXXXXXXXXXXXXXXXXXXXX  OOOOOOOOOOO",
"OOOOOOOOOOOO XXXXXX.     ooXXXXXXXXXXXXXXXXXXXXXXXX  OOOOOOOOOOO",
"OOOOOOOOOO  oXXXXXXX..  o++@@XXXXXXXXXXXX@XXXXXXXXXoo OOOOOOOOOO",
"OOOOOOOOOO  oXXXXXXX..  o++@@XXXXXXXXXXXX@XXXXXXXXXoo OOOOOOOOOO",
"OOOOOOOOOO  @@@XXXXXXX.. oo++@XXXXXXXXX@@@@@XXXXXXX@@o  OOOOOOOO",
"OOOOOOOO  oo@@@@@XXXXXXX.  oo+@@XXXXX@@@@@@@@@XXX@@@@@oo  OOOOOO",
"OOOOOOOO  oo@@@@@XXXXXXX.  oo+@@XXXXX@@@@@@@@@XXX@@@@@oo  OOOOOO",
"OOOOO   oo@@@@@@@@@XXXXX+oo  oXXXXXX@@@@@@@@@@@@X@@@@@@@oo  OOOO",
"OOOOO   oo@@@@@@@@@XXXXX+oo  oXXXXXX@@@@@@@@@@@@X@@@@@@@oo  OOOO",
"OOOOO     oo@@@@@@@@XX@@@++oo ooXXXX@@@@@@@@@@XXX@@@@@@@oo  OOOO",
"OOOOO     oo@@@@@@@@XX@@@++oo ooXXXX@@@@@@@@@@XXX@@@@@@@oo  OOOO",
"OOOOOOO     o@@@@@@XXX@@@@@++o  ..XXX@@@@@@@XXXXXXX@@@@@oo  OOOO",
"OOOOOOO     o@@@@@@XXX@@@@@++o  ..XXX@@@@@@@XXXXXXX@@@@@oo  OOOO",
"OOOOOOOO     oo@@XXXXXXX@@@@@+oo  ..XXX@@@XXXXXXXXXXX@oo  OOOOOO",
"OOOOOOOO     oo@@XXXXXXX@@@@@+oo  ..XXX@@@XXXXXXXXXXX@oo  OOOOOO",
"OOOOOOOOOO     ooXXXXXXXX@@@@@  ..  .XXXXXXXXXXXXXXXXX  OOOOOOOO",
"OOOOOOOOOO     ooXXXXXXXX@@@@@  ..  .XXXXXXXXXXXXXXXXX  OOOOOOOO",
"OOOOOOOOOOOO     XXXXXXXXXX@@XXXXX.. ..XX@XXXXXXXXXXXX  OOOOOOOO",
"OOOOOOOOOOOO     XXXXXXXXXX@@XXXXX.. ..XX@XXXXXXXXXXXX  OOOOOOOO",
"OOOOOOOOOOOOO      XXXXXXXXXXXXXXXXX.  oo+@@XXXXXXXXX OOOOOOOOOO",
"OOOOOOOOOOOOOOO     XXXXXXX@@@XXXXXXX..  o++@@XXXXX  OOOOOOOOOOO",
"OOOOOOOOOOOOOOO     XXXXXXX@@@XXXXXXX..  o++@@XXXXX  OOOOOOOOOOO",
"OOOOOOOOOOOOOOOOO     XXXXX@@@@@XXXXX  XX oo++ooX  OOOOOOOOOOOOO",
"OOOOOOOOOOOOOOOOO     XXXXX@@@@@XXXXX  XX oo++ooX  OOOOOOOOOOOOO",
"OOOOOOOOOOOOOOOOOOO     X@@@@@@@@@XX XXooX  oo   OOOOOOOOOOOOOOO",
"OOOOOOOOOOOOOOOOOOO     X@@@@@@@@@XX XXooX  oo   OOOOOOOOOOOOOOO",
"OOOOOOOOOOOOOOOOOOOO     oo@@@@@oo     ooo    OOOOOOOOOOOOOOOOOO",
"OOOOOOOOOOOOOOOOOOOO     oo@@@@@oo     ooo    OOOOOOOOOOOOOOOOOO",
"OOOOOOOOOOOOOOOOOOOOOO     oo@@@  OOOOOOOOOOOOOOOOOOOOOOOOOOOOOO",
"OOOOOOOOOOOOOOOOOOOOOO     oo@@@  OOOOOOOOOOOOOOOOOOOOOOOOOOOOOO",
"OOOOOOOOOOOOOOOOOOOOOOOO     o@@  OOOOOOOOOOOOOOOOOOOOOOOOOOOOOO",
"OOOOOOOOOOOOOOOOOOOOOOOO     o@@  OOOOOOOOOOOOOOOOOOOOOOOOOOOOOO",
"OOOOOOOOOOOOOOOOOOOOOOOOO     oo  OOOOOOOOOOOOOOOOOOOOOOOOOOOOOO",
"OOOOOOOOOOOOOOOOOOOOOOOOOOO       OOOOOOOOOOOOOOOOOOOOOOOOOOOOOO",
"OOOOOOOOOOOOOOOOOOOOOOOOOOO       OOOOOOOOOOOOOOOOOOOOOOOOOOOOOO",
"OOOOOOOOOOOOOOOOOOOOOOOOOOOOOOOOOOOOOOOOOOOOOOOOOOOOOOOOOOOOOOOO",
"OOOOOOOOOOOOOOOOOOOOOOOOOOOOOOOOOOOOOOOOOOOOOOOOOOOOOOOOOOOOOOOO",
"OOOOOOOOOOOOOOOOOOOOOOOOOOOOOOOOOOOOOOOOOOOOOOOOOOOOOOOOOOOOOOOO",
"OOOOOOOOOOOOOOOOOOOOOOOOOOOOOOOOOOOOOOOOOOOOOOOOOOOOOOOOOOOOOOOO",
"OOOOOOOOOOOOOOOOOOOOOOOOOOOOOOOOOOOOOOOOOOOOOOOOOOOOOOOOOOOOOOOO",
"OOOOOOOOOOOOOOOOOOOOOOOOOOOOOOOOOOOOOOOOOOOOOOOOOOOOOOOOOOOOOOOO",
"OOOOOOOOOOOOOOOOOOOOOOOOOOOOOOOOOOOOOOOOOOOOOOOOOOOOOOOOOOOOOOOO",
"OOOOOOOOOOOOOOOOOOOOOOOOOOOOOOOOOOOOOOOOOOOOOOOOOOOOOOOOOOOOOOOO",
"OOOOOOOOOOOOOOOOOOOOOOOOOOOOOOOOOOOOOOOOOOOOOOOOOOOOOOOOOOOOOOOO",
"OOOOOOOOOOOOOOOOOOOOOOOOOOOOOOOOOOOOOOOOOOOOOOOOOOOOOOOOOOOOOOOO",
"OOOOOOOOOOOOOOOOOOOOOOOOOOOOOOOOOOOOOOOOOOOOOOOOOOOOOOOOOOOOOOOO",
"OOOOOOOOOOOOOOOOOOOOOOOOOOOOOOOOOOOOOOOOOOOOOOOOOOOOOOOOOOOOOOOO"
};
