/* XPM */
static char *_fc7aceff51f4cdede04de29471f789e6yyvIcnz8uWmSoJ9[] = {
/* columns rows colors chars-per-pixel */
"64 64 6 1 ",
"  c black",
". c #34343E",
"X c #011345",
"o c #E12C3E",
"O c #F6B910",
"+ c #B9B9B9",
/* pixels */
"++++++++++++++++++++++++++++++++++++++++++++++++++++++++++++++++",
"++++++++++++++++++++++++++++++++++++++++++++++++++++++++++++++++",
"++++++++++++++++++++++++++++++++++++++++++++++++++++++++++++++++",
"++++++++++++++++++++++++++++++++++++++++++++++++++++++++++++++++",
"++++++++++++++++++++++++++++++++++++++++++++++++++++++++++++++++",
"++++++++++++++++++++++++++++++++++++++++++++++++++++++++++++++++",
"++++++++++++++++++++++++++++++++++++++++++++++++++++++++++++++++",
"++++++++++++++++++++++++++++++++++++++++++++++++++++++++++++++++",
"++++++++++++++++++++++++++++++++++++++++++++++++++++++++++++++++",
"++++++++++++++++++++++++++++++++++++++++++++++++++++++++++++++++",
"++++++++++++++++++++++++++++++++++++++++++++++++++++++++++++++++",
"++++++++++++++++++++++++++++++++++++++++++++++++++++++++++++++++",
"++++++++++++++++++++++++++++++++++++++++++++++++++++++++++++++++",
"++++++++++++++++++++++++++++++++++++++++++++++++++++++++++++++++",
"++++++++++++++++++++++++++++++++++++++++++++++++++++++++++++++++",
"++++++++++++++++++++++++++++++++++++++++++++++++++++++++++++++++",
"++++++++++++++++++++++++++++++++++++++++++++++++++++++++++++++++",
"++++++++++++++++++++++++++++++++++++++++++++        ++++++++++++",
"++++++++       +++++++++++++++++++++++++++++        ++      ++++",
"++++++++       +++++++++++++++++++++++++++++        ++      ++++",
"++++++++       +++++++++++++++++      ++++++        ++o     ++++",
"++++++++       +           XXX    ++   ++++++    +++++oooo   +++",
"++++++++       +           XXX    ++   ++++++    +++++oooo   +++",
"++++++++       +           XXX    ++   ++++++    +++++oooo   +++",
"++++++++                XXXXXXXXXX +  + +++++  ++++++++ooo   +++",
"++      ++  +++       ooXXXXXXXXXX +    ++++  +  ++++++++oo  +++",
"++      ++  +++       ooXXXXXXXXXX +    ++++  +  ++++++++oo  +++",
"+++XXX++           oooooOOO......X +++    ++ ++  +++++++++oo +++",
"+++XXX++  XXXXXXXXXXXooOOOOOXXXX..XXXX+      ++  ++ +++++++  +++",
"+++XXX++  XXXXXXXXXXXooOOOOOXXXX..XXXX+      ++  ++ +++++++  +++",
"+++XXX++  XXXXXXXXXXXX  OOOO     .  XXXXXXXXXXXXXXXXXXoooOO    +",
"+++XXX++ XXXXXXXXXXXXX  OOOO     ......XXXXXXXXXXXXXXXXOOOOO   +",
"+++XXX++ XXXXXXXXXXXXX  OOOO     ......XXXXXXXXXXXXXXXXOOOOO   +",
"+++XXX++ XXXXXXXXXXXXX  OOOO     ......XXXXXXXXXXXXXXXXOOOOO   +",
"+++XXX++  XXXXXXXXXXXX  OOOO     .  XXXXXXXXXXXXXXXXXXoooOO    +",
"+++XXX++  XXXXXXXXXXXooOOOOOXXXX..XXXX+      ++  ++ +++++++  +++",
"+++XXX++  XXXXXXXXXXXooOOOOOXXXX..XXXX+      ++  ++ +++++++  +++",
"+++XXX++           oooooOOO......X +++    ++ ++  +++++++++oo +++",
"++      ++  +++       ooXXXXXXXXXX +    ++++  +  ++++++++oo  +++",
"++      ++  +++       ooXXXXXXXXXX +    ++++  +  ++++++++oo  +++",
"++++++++                XXXXXXXXXX +  + +++++  ++++++++ooo   +++",
"++++++++       +           XXX    ++   ++++++    +++++oooo   +++",
"++++++++       +           XXX    ++   ++++++    +++++oooo   +++",
"++++++++       +           XXX    ++   ++++++    +++++oooo   +++",
"++++++++       +++++++++++++++++      ++++++        ++o     ++++",
"++++++++       +++++++++++++++++++++++++++++        ++      ++++",
"++++++++       +++++++++++++++++++++++++++++        ++      ++++",
"++++++++++++++++++++++++++++++++++++++++++++        ++++++++++++",
"++++++++++++++++++++++++++++++++++++++++++++++++++++++++++++++++",
"++++++++++++++++++++++++++++++++++++++++++++++++++++++++++++++++",
"++++++++++++++++++++++++++++++++++++++++++++++++++++++++++++++++",
"++++++++++++++++++++++++++++++++++++++++++++++++++++++++++++++++",
"++++++++++++++++++++++++++++++++++++++++++++++++++++++++++++++++",
"++++++++++++++++++++++++++++++++++++++++++++++++++++++++++++++++",
"++++++++++++++++++++++++++++++++++++++++++++++++++++++++++++++++",
"++++++++++++++++++++++++++++++++++++++++++++++++++++++++++++++++",
"++++++++++++++++++++++++++++++++++++++++++++++++++++++++++++++++",
"++++++++++++++++++++++++++++++++++++++++++++++++++++++++++++++++",
"++++++++++++++++++++++++++++++++++++++++++++++++++++++++++++++++",
"++++++++++++++++++++++++++++++++++++++++++++++++++++++++++++++++",
"++++++++++++++++++++++++++++++++++++++++++++++++++++++++++++++++",
"++++++++++++++++++++++++++++++++++++++++++++++++++++++++++++++++",
"++++++++++++++++++++++++++++++++++++++++++++++++++++++++++++++++",
"++++++++++++++++++++++++++++++++++++++++++++++++++++++++++++++++"
};
