/* XPM */
static char *_414c088bedc40d7f9737f4e1f9ec597qPbdWqWFmcxHwX6d[] = {
/* columns rows colors chars-per-pixel */
"64 64 6 1 ",
"  c black",
". c #34343E",
"X c #011345",
"o c #E12C3E",
"O c #F6B910",
"+ c #B9B9B9",
/* pixels */
"++++++++++++++++++++++++++++++++++++++++++++++++++++++++++++++++",
"++++++++++++++++++++++++++++++     +++++++++++++++++++++++++++++",
"++++++++++++++++++++++++++++++     +++++++++++++++++++++++++++++",
"+++++++++++++++++++++                       ++++++++++++++++++++",
"++++++++++++++++++         o   OOO   o         +++++++++++++++++",
"++++++++++++++++++       ooo++OOOOO++ooo       +++++++++++++++++",
"++++++++++++++++++   oooooo+++OOOOO+++oooooo   +++++++++++++++++",
"++++++++++++++++++   oooo+++++oOOOo+++++oooo   +++++++++++++++++",
"++++++++++++++++++   oooo+++++oOOOo+++++oooo   +++++++++++++++++",
"++++++++++++++++++  oooo++++++oXXXo++++++oooo  +++++++++++++++++",
"++++++++++++++++++++++++++++++XXXXX+++++++++++++++++++++++++++++",
"++++++++++++++++++++++++++++++XXXXX+++++++++++++++++++++++++++++",
"+++++++++++++++++    +++++++  XXXXX  +++++++    ++++++++++++++++",
"+++++++++++++++++    +++++++++XXXXX+++++++++    ++++++++++++++++",
"+++++++++++++++++    +++++++++XXXXX+++++++++    ++++++++++++++++",
"+++++++++++++++++       +     XXXXX     +       ++++++++++++++++",
"+++++++++++++++++       +     XXXXX     +       ++++++++++++++++",
"+++++++++++++++++        +++++XXXXX+++++        ++++++++++++++++",
"+++++++++++++++++          +++XXXXX+++          ++++++++++++++++",
"+++++++++++++++++    ++++     XXXXX     ++++    ++++++++++++++++",
"++++++++++++++++++++++++++++  XXXXX  +++++++++++++++++++++++++++",
"++++++++++++++++++++++++++++  XXXXX  +++++++++++++++++++++++++++",
"+++++++++++++++++++++++++++   XXXXX   ++++++++++++++++++++++++++",
"+++++++++++++++++++++++++++   XXXXX   ++++++++++++++++++++++++++",
"++++++++++++++++++++++++      XXXXX      +++++++++++++++++++++++",
"+++++++++++++++++++++   +   ++X...X++   +   ++++++++++++++++++++",
"++++++++++++++++++++       +XXX...XXX+       +++++++++++++++++++",
"++++++++++++++++++++       +XXX...XXX+       +++++++++++++++++++",
"++++++++++++++++++++ +++++++XX ... XX+++++++ +++++++++++++++++++",
"++++++++++++++++++++ +++    XX ... XX    +++ +++++++++++++++++++",
"++++++++++++++++++++    XXXX.........XXXX    +++++++++++++++++++",
"++++++++++++++++++++    XXX...     ...XXX    +++++++++++++++++++",
"+++++++++++++++++++++   XXX.XX     XX.XXX   ++++++++++++++++++++",
"+++++++++++++++++++++   XXX.XX     XX.XXX   ++++++++++++++++++++",
"+++++++++++++++++++++XXXXXX.XX     XX.XXXXXX++++++++++++++++++++",
"+++++++++++++++++++++XXXXXX.XX     XX.XXXXXX++++++++++++++++++++",
"+++++++++++++++++++++XXXXXX.OOOOOOOOO.XXXXXX++++++++++++++++++++",
"+++++++++++++++++++++   XXXOOOOOOOOOOOXXX   ++++++++++++++++++++",
"+++++++++++++++++++++   XXXOOOOOOOOOOOXXX   ++++++++++++++++++++",
"+++++++++++++++++++++   XXXOOOOOOOOOOOXXX   ++++++++++++++++++++",
"+++++++++++++++++++++    oooOO     OOooo    ++++++++++++++++++++",
"+++++++++++++++++++++    ooooo     ooooo    ++++++++++++++++++++",
"+++++++++++++++++++++      oooXXXXXooo      ++++++++++++++++++++",
"+++++++++++++++++++++      oXXXXXXXXXo      ++++++++++++++++++++",
"+++++++++++++++++++++      oXXXXXXXXXo      ++++++++++++++++++++",
"+++++++++++++++++++++       XXXXXXXXX       ++++++++++++++++++++",
"+++++++++++++++++++++       XXXXXXXXX       ++++++++++++++++++++",
"+++++++++++++++++++++       XXXXXXXXX       ++++++++++++++++++++",
"++++++++++++++++++++++++    XXXXXXXXX    +++++++++++++++++++++++",
"++++++++++++++++++       ++ XXXXXXXXX ++       +++++++++++++++++",
"++++++++++++++++++       ++ XXXXXXXXX ++       +++++++++++++++++",
"++++++++++++++++++       ++ XXXXXXXXX ++       +++++++++++++++++",
"++++++++++++++++++          XXXXXXXXX          +++++++++++++++++",
"++++++++++++++++++          XXXXXXXXX          +++++++++++++++++",
"++++++++++++++++++       ++    XXX    ++       +++++++++++++++++",
"++++++++++++++++++       ++           ++       +++++++++++++++++",
"+++++++++++++++++++++++++  +++++++++++  ++++++++++++++++++++++++",
"+++++++++++++++++++++++++  +++++++++++  ++++++++++++++++++++++++",
"+++++++++++++++++++++++++  XXXXXXXXXXX  ++++++++++++++++++++++++",
"+++++++++++++++++++++++++  XXXXXXXXXXX  ++++++++++++++++++++++++",
"+++++++++++++++++++++++++  XXXXXXXXXXX  ++++++++++++++++++++++++",
"+++++++++++++++++++++++++  +++++++++++  ++++++++++++++++++++++++",
"++++++++++++++++++++++++++++++++++++++++++++++++++++++++++++++++",
"++++++++++++++++++++++++++++++++++++++++++++++++++++++++++++++++"
};
