/* XPM */
static char *fd1ce0c8709b412d885817e938cfe642om9N8knwE7vQSr6q[] = {
/* columns rows colors chars-per-pixel */
"64 64 2 1 ",
"  c #1D1D1D",
". c #EA342A",
/* pixels */
"                                                                ",
"                                                                ",
"                                                                ",
"                                                                ",
"                                                                ",
"                                                                ",
"                                                                ",
"                                                                ",
"                                                                ",
"                                                                ",
"                                                                ",
"                                                                ",
"                                                                ",
"                                                                ",
"                                                                ",
"                  ...............................    ........   ",
"                  ...............................    ........   ",
"                 ................................    ........   ",
"                ................................    .......     ",
"                ................................    .......     ",
"                ................................    .......     ",
"              .................................   ........      ",
"              .................................   ........      ",
"              .................................   ........      ",
"             ........                            ........       ",
"             ........                            ........       ",
"             ........                            ........       ",
"            .......    .....................    ........        ",
"            .......   ......................    ........        ",
"            .......   ......................    ........        ",
"          ........   ......................   ........          ",
"          ........   ......................   ........          ",
"          ........   ......................   ........          ",
"         ........  .......................   ........           ",
"         ........  .......................   ........           ",
"         ........  .......................   ........           ",
"        ........  ........                  ........            ",
"        ........  ........                  ........            ",
"      ........   ........                  .......              ",
"      ........   ........                  .......              ",
"      ........   ........                  .......              ",
"     ........   .......                  ........               ",
"     ........   .......                  ........               ",
"     ........   .......                  ........               ",
"    ........  ........                  ........                ",
"    ........  ........                  ........                ",
"    ........  ........                  ........                ",
"                                                                ",
"                                                                ",
"                                                                ",
"                                                                ",
"                                                                ",
"                                                                ",
"                                                                ",
"                                                                ",
"                                                                ",
"                                                                ",
"                                                                ",
"                                                                ",
"                                                                ",
"                                                                ",
"                                                                ",
"                                                                ",
"                                                                "
};
